<svg width="57" height="57" viewBox="0 0 57 57" fill="none" xmlns="http://www.w3.org/2000/svg">
<path d="M4.75 11.875C4.75 10.6152 5.25044 9.40704 6.14124 8.51624C7.03204 7.62544 8.24022 7.125 9.5 7.125H47.5C48.7598 7.125 49.968 7.62544 50.8588 8.51624C51.7496 9.40704 52.25 10.6152 52.25 11.875V38C52.25 39.2598 51.7496 40.468 50.8588 41.3588C49.968 42.2496 48.7598 42.75 47.5 42.75H30.875V47.5H38C38.6299 47.5 39.234 47.7502 39.6794 48.1956C40.1248 48.641 40.375 49.2451 40.375 49.875C40.375 50.5049 40.1248 51.109 39.6794 51.5544C39.234 51.9998 38.6299 52.25 38 52.25H19C18.3701 52.25 17.766 51.9998 17.3206 51.5544C16.8752 51.109 16.625 50.5049 16.625 49.875C16.625 49.2451 16.8752 48.641 17.3206 48.1956C17.766 47.7502 18.3701 47.5 19 47.5H26.125V42.75H9.5C8.24022 42.75 7.03204 42.2496 6.14124 41.3588C5.25044 40.468 4.75 39.2598 4.75 38V11.875ZM47.5 38V11.875H9.5V38H47.5Z" fill="#03A9F4"/>
</svg>
