<svg width="52" height="52" viewBox="0 0 52 52" fill="none" xmlns="http://www.w3.org/2000/svg">
<path d="M4.33333 45.5C3.14167 45.5 2.12189 45.0761 1.274 44.2282C0.424667 43.3788 0 42.3583 0 41.1667V10.8333C0 9.64167 0.424667 8.62117 1.274 7.77183C2.12189 6.92394 3.14167 6.5 4.33333 6.5H47.6667C48.8583 6.5 49.8788 6.92394 50.7282 7.77183C51.5761 8.62117 52 9.64167 52 10.8333V41.1667C52 42.3583 51.5761 43.3788 50.7282 44.2282C49.8788 45.0761 48.8583 45.5 47.6667 45.5H4.33333ZM34.45 41.1667H47.6667V10.8333H4.33333V41.1667H4.55C6.06667 38.4583 8.16111 36.3364 10.8333 34.801C13.5056 33.267 16.3944 32.5 19.5 32.5C22.6056 32.5 25.4944 33.267 28.1667 34.801C30.8389 36.3364 32.9333 38.4583 34.45 41.1667ZM19.5 30.3333C21.3056 30.3333 22.8403 29.7014 24.1042 28.4375C25.3681 27.1736 26 25.6389 26 23.8333C26 22.0278 25.3681 20.4931 24.1042 19.2292C22.8403 17.9653 21.3056 17.3333 19.5 17.3333C17.6944 17.3333 16.1597 17.9653 14.8958 19.2292C13.6319 20.4931 13 22.0278 13 23.8333C13 25.6389 13.6319 27.1736 14.8958 28.4375C16.1597 29.7014 17.6944 30.3333 19.5 30.3333ZM41.1667 39L45.5 34.6667L42.25 30.3333H38.675C38.4583 29.6833 38.2778 28.9878 38.1333 28.2468C37.9889 27.5073 37.9167 26.7583 37.9167 26C37.9167 25.2417 37.9889 24.5108 38.1333 23.8073C38.2778 23.1024 38.4583 22.3889 38.675 21.6667H42.25L45.5 17.3333L41.1667 13C39.2167 14.5167 37.6458 16.4392 36.4542 18.7677C35.2625 21.0976 34.6667 23.5083 34.6667 26C34.6667 28.4917 35.2625 30.9017 36.4542 33.2302C37.6458 35.5601 39.2167 37.4833 41.1667 39ZM9.85833 41.1667H29.1417C27.9139 39.7944 26.4608 38.7292 24.7823 37.9708C23.1024 37.2125 21.3417 36.8333 19.5 36.8333C17.6583 36.8333 15.9069 37.2125 14.2458 37.9708C12.5847 38.7292 11.1222 39.7944 9.85833 41.1667ZM19.5 26C18.8861 26 18.3719 25.792 17.9573 25.376C17.5413 24.9614 17.3333 24.4472 17.3333 23.8333C17.3333 23.2194 17.5413 22.7045 17.9573 22.2885C18.3719 21.8739 18.8861 21.6667 19.5 21.6667C20.1139 21.6667 20.6288 21.8739 21.0448 22.2885C21.4594 22.7045 21.6667 23.2194 21.6667 23.8333C21.6667 24.4472 21.4594 24.9614 21.0448 25.376C20.6288 25.792 20.1139 26 19.5 26Z" fill="white"/>
</svg>
