<svg width="31" height="31" viewBox="0 0 31 31" fill="none" xmlns="http://www.w3.org/2000/svg">
<path d="M28.4166 21.9609C28.416 23.7273 27.8122 25.4406 26.7052 26.8171C25.5981 28.1936 24.0542 29.1507 22.329 29.5301L21.5049 27.0578C22.2595 26.9335 22.9772 26.6434 23.6062 26.2083C24.2351 25.7732 24.7598 25.204 25.1422 24.5416H21.9583C21.2731 24.5416 20.616 24.2695 20.1316 23.785C19.6471 23.3005 19.3749 22.6435 19.3749 21.9583V16.7916C19.3749 16.1065 19.6471 15.4494 20.1316 14.965C20.616 14.4805 21.2731 14.2083 21.9583 14.2083H25.7532C25.438 11.7114 24.2224 9.41529 22.3347 7.75085C20.4469 6.08642 18.0167 5.16804 15.4999 5.16804C12.9832 5.16804 10.5529 6.08642 8.66516 7.75085C6.7774 9.41529 5.56188 11.7114 5.24667 14.2083H9.04159C9.72673 14.2083 10.3838 14.4805 10.8683 14.965C11.3527 15.4494 11.6249 16.1065 11.6249 16.7916V21.9583C11.6249 22.6435 11.3527 23.3005 10.8683 23.785C10.3838 24.2695 9.72673 24.5416 9.04159 24.5416H5.16659C4.48144 24.5416 3.82436 24.2695 3.33989 23.785C2.85542 23.3005 2.58325 22.6435 2.58325 21.9583V15.5C2.58325 8.3661 8.36604 2.58331 15.4999 2.58331C22.6338 2.58331 28.4166 8.3661 28.4166 15.5V21.9609Z" fill="#03A9F4"/>
</svg>
