<svg width="32" height="35" viewBox="0 0 32 35" fill="none" xmlns="http://www.w3.org/2000/svg">
<path d="M30.3357 20.4941C30.5429 19.5371 30.6714 18.5186 30.6714 17.5C30.6714 9.74121 24.1071 3.46582 16.0071 3.46582C14.9429 3.46582 13.8857 3.58203 12.8786 3.78711C11.5214 2.78223 9.83571 2.1875 8 2.1875C3.58571 2.1875 0 5.61914 0 9.84375C0 11.6006 0.621428 13.2139 1.66429 14.5059C1.45714 15.4629 1.32857 16.4814 1.32857 17.5C1.32857 25.2588 7.89286 31.5342 15.9929 31.5342C17.0571 31.5342 18.1143 31.418 19.1214 31.2129C20.4786 32.2109 22.1643 32.8057 23.9929 32.8057C28.4071 32.8057 31.9929 29.374 31.9929 25.1494C32 23.3994 31.3786 21.7861 30.3357 20.4941ZM16.4357 26.749C11.75 26.749 7.82857 24.7529 7.82857 22.3057C7.82857 21.2119 8.47143 20.2139 9.93571 20.2139C12.1643 20.2139 12.3714 23.2832 16.2286 23.2832C18.0643 23.2832 19.25 22.5039 19.25 21.4854C19.25 20.207 18.1071 20.0088 16.25 19.5713C11.7857 18.5186 7.83571 18.0674 7.83571 13.6104C7.83571 9.56348 12.0214 8.06641 15.6286 8.06641C19.5643 8.06641 23.5429 9.56348 23.5429 11.8535C23.5429 13.0088 22.7286 14.0273 21.3786 14.0273C19.3571 14.0273 19.2929 11.7373 16.0214 11.7373C14.1857 11.7373 13.0214 12.2158 13.0214 13.2754C13.0214 14.6289 14.5071 14.7656 17.9571 15.5312C20.9143 16.167 24.4357 17.3633 24.4357 20.8359C24.4357 24.876 20.3571 26.749 16.4357 26.749Z" fill="white"/>
</svg>
