<svg width="33" height="32" viewBox="0 0 33 32" fill="none" xmlns="http://www.w3.org/2000/svg">
<path d="M16.5 31C25.0432 31 31.9688 24.2843 31.9688 16C31.9688 7.71573 25.0432 1 16.5 1C7.95685 1 1.03125 7.71573 1.03125 16C1.03125 24.2843 7.95685 31 16.5 31Z" fill="#03A9F4"/>
<path d="M13.9219 13.9H19.0781V25.9H13.9219V13.9Z" fill="white"/>
<path d="M16.5 11.1C17.9239 11.1 19.0781 9.98069 19.0781 8.59998C19.0781 7.21926 17.9239 6.09998 16.5 6.09998C15.0761 6.09998 13.9219 7.21926 13.9219 8.59998C13.9219 9.98069 15.0761 11.1 16.5 11.1Z" fill="white"/>
</svg>
