<svg width="38" height="38" viewBox="0 0 38 38" fill="none" xmlns="http://www.w3.org/2000/svg">
<path d="M18.9999 14.0533C16.2761 14.0533 14.0533 16.2762 14.0533 19C14.0533 21.7238 16.2761 23.9467 18.9999 23.9467C21.7238 23.9467 23.9466 21.7238 23.9466 19C23.9466 16.2762 21.7238 14.0533 18.9999 14.0533ZM33.8363 19C33.8363 16.9515 33.8548 14.9217 33.7398 12.8769C33.6247 10.5019 33.0829 8.39412 31.3462 6.6574C29.6058 4.91697 27.5017 4.37889 25.1267 4.26385C23.0783 4.14881 21.0484 4.16736 19.0036 4.16736C16.9552 4.16736 14.9253 4.14881 12.8806 4.26385C10.5056 4.37889 8.39778 4.92068 6.66106 6.6574C4.92064 8.39783 4.38255 10.5019 4.26751 12.8769C4.15247 14.9254 4.17103 16.9553 4.17103 19C4.17103 21.0447 4.15247 23.0783 4.26751 25.123C4.38255 27.498 4.92435 29.6058 6.66106 31.3426C8.40149 33.083 10.5056 33.6211 12.8806 33.7361C14.929 33.8512 16.9589 33.8326 19.0036 33.8326C21.0521 33.8326 23.082 33.8512 25.1267 33.7361C27.5017 33.6211 29.6095 33.0793 31.3462 31.3426C33.0867 29.6021 33.6247 27.498 33.7398 25.123C33.8585 23.0783 33.8363 21.0484 33.8363 19ZM18.9999 26.6111C14.788 26.6111 11.3888 23.2119 11.3888 19C11.3888 14.7881 14.788 11.3888 18.9999 11.3888C23.2118 11.3888 26.6111 14.7881 26.6111 19C26.6111 23.2119 23.2118 26.6111 18.9999 26.6111ZM26.9228 12.8547C25.9394 12.8547 25.1452 12.0605 25.1452 11.0771C25.1452 10.0937 25.9394 9.29959 26.9228 9.29959C27.9062 9.29959 28.7003 10.0937 28.7003 11.0771C28.7006 11.3106 28.6548 11.5419 28.5656 11.7577C28.4764 11.9735 28.3455 12.1696 28.1803 12.3347C28.0152 12.4998 27.8192 12.6307 27.6034 12.72C27.3876 12.8092 27.1563 12.855 26.9228 12.8547Z" fill="white"/>
</svg>
