<svg width="31" height="31" viewBox="0 0 31 31" fill="none" xmlns="http://www.w3.org/2000/svg">
<g clip-path="url(#clip0_195_426)">
<path d="M18.4227 30.9923C9.61822 30.9923 9.55044 30.6271 8.46011 29.806C7.88177 29.3711 6.7905 29.0698 2.80458 28.8102C2.51541 28.7913 2.24028 28.6804 2.05576 28.4566C1.971 28.3534 -0.020752 25.4486 -0.020752 20.7962C-0.020752 16.2116 1.40476 14.122 1.46576 14.0251C1.55273 13.8858 1.67373 13.7708 1.81736 13.6912C1.96099 13.6115 2.12254 13.5698 2.28678 13.5698C5.5597 13.5698 10.0968 9.39204 13.147 2.09929C13.6744 0.837974 13.7834 0.00823975 15.7209 0.00823975C16.8229 0.00823975 18.058 0.797287 18.6679 1.80966C19.919 3.87794 19.2835 8.32017 18.6959 10.6941C20.694 10.6781 24.3108 10.651 26.0318 10.651C28.4256 10.651 30.0099 12.0784 30.0579 14.1651C30.0739 14.8539 29.9833 15.7335 29.7842 16.1888C30.3112 16.7144 30.9908 17.5068 31.0203 18.5274C31.0571 19.8449 30.1945 20.848 29.6437 21.4234C29.7701 21.8066 30.023 22.3147 29.9982 22.9221C29.9377 24.4159 28.7844 25.3784 28.0661 25.8806C28.1257 26.2895 28.1722 27.0606 28.0409 27.6568C27.5226 30.0366 24.0327 30.9923 18.4227 30.9923L18.4227 30.9923ZM3.31847 26.8456C6.79047 27.1328 8.64653 27.5218 9.62546 28.2585C10.383 28.8291 10.2663 29.0553 18.4227 29.0553C20.9104 29.0553 25.776 28.9516 26.1489 27.2437C26.2972 26.5608 25.5769 25.8895 25.5745 25.8841C25.3778 25.3988 25.5968 24.8291 26.0763 24.6194C26.084 24.6155 28.0181 23.9229 28.0623 22.8417C28.0913 22.1506 27.6166 21.7355 27.606 21.718C27.3236 21.2801 27.4268 20.6795 27.8549 20.3811C27.8598 20.3772 29.1128 19.6178 29.0823 18.5822C29.0586 17.7597 27.975 17.1808 27.9421 17.1615C27.6999 17.023 27.5236 16.7832 27.4684 16.509C27.4141 16.2354 27.4752 15.9481 27.6452 15.7258C27.6452 15.7258 28.1378 14.9431 28.1199 14.2088C28.0845 12.637 26.3941 12.5875 26.0312 12.5875C23.5876 12.5875 17.3116 12.6123 17.3116 12.6123C16.973 12.6137 16.68 12.4539 16.4978 12.1831C16.3162 11.9123 16.3026 11.5762 16.4092 11.2681C17.3556 8.54253 17.8841 4.26647 17.0064 2.8056C16.7477 2.37499 16.6886 1.94486 15.7199 1.94486C15.5857 1.94486 15.2661 2.05094 14.9328 2.84531C11.6957 10.5905 6.8607 15.0705 2.90045 15.4744C2.55897 16.2533 1.91669 17.8672 1.91669 20.7957C1.91669 23.7848 2.86361 26.0972 3.31847 26.8456Z" fill="#03A9F4"/>
</g>
<defs>
<clipPath id="clip0_195_426">
<rect width="31" height="31" fill="white"/>
</clipPath>
</defs>
</svg>
