<svg width="31" height="31" viewBox="0 0 31 31" fill="none" xmlns="http://www.w3.org/2000/svg">
<path d="M26.2725 12.0384L8.18912 2.99669C7.47546 2.64149 6.66962 2.51504 5.88147 2.63457C5.09332 2.75411 4.36121 3.11381 3.78496 3.66463C3.20872 4.21546 2.81637 4.9306 2.66142 5.71256C2.50647 6.49452 2.59646 7.30524 2.91912 8.03419L6.01912 14.9704C6.08946 15.1381 6.12569 15.3182 6.12569 15.5C6.12569 15.6819 6.08946 15.8619 6.01912 16.0296L2.91912 22.9659C2.65652 23.5558 2.54551 24.202 2.59617 24.8457C2.64683 25.4894 2.85756 26.1103 3.2092 26.6519C3.56085 27.1935 4.04226 27.6386 4.60968 27.9468C5.17711 28.255 5.81256 28.4165 6.45829 28.4167C7.06309 28.4107 7.65888 28.2694 8.20204 28.0034L26.2854 18.9617C26.9268 18.639 27.466 18.1445 27.8427 17.5332C28.2195 16.922 28.419 16.2181 28.419 15.5C28.419 14.782 28.2195 14.0781 27.8427 13.4668C27.466 12.8556 26.9268 12.361 26.2854 12.0384H26.2725ZM25.1229 16.6496L7.03954 25.6913C6.80208 25.8053 6.53544 25.844 6.27537 25.8022C6.0153 25.7603 5.77423 25.64 5.58449 25.4573C5.39475 25.2746 5.26541 25.0382 5.21381 24.7799C5.1622 24.5216 5.19081 24.2537 5.29579 24.0121L8.38287 17.0759C8.42283 16.9832 8.45734 16.8883 8.4862 16.7917H17.3858C17.7284 16.7917 18.0569 16.6556 18.2991 16.4134C18.5414 16.1711 18.6775 15.8426 18.6775 15.5C18.6775 15.1575 18.5414 14.8289 18.2991 14.5867C18.0569 14.3444 17.7284 14.2084 17.3858 14.2084H8.4862C8.45734 14.1117 8.42283 14.0168 8.38287 13.9242L5.29579 6.98794C5.19081 6.74635 5.1622 6.47844 5.21381 6.22013C5.26541 5.96183 5.39475 5.72547 5.58449 5.54276C5.77423 5.36004 6.0153 5.23971 6.27537 5.19789C6.53544 5.15607 6.80208 5.19476 7.03954 5.30877L25.1229 14.3504C25.3344 14.4588 25.512 14.6235 25.636 14.8263C25.76 15.0292 25.8256 15.2623 25.8256 15.5C25.8256 15.7378 25.76 15.9709 25.636 16.1737C25.512 16.3765 25.3344 16.5412 25.1229 16.6496Z" fill="#03A9F4"/>
</svg>
