<svg width="71" height="71" viewBox="0 0 71 71" fill="none" xmlns="http://www.w3.org/2000/svg">
<path d="M35.5739 62.125C34.7357 62.125 34.0326 61.841 33.4646 61.273C32.8985 60.707 32.6155 60.0049 32.6155 59.1667V55.7646C30.3968 55.2715 28.4492 54.4087 26.7728 53.176C25.0964 51.9434 23.7405 50.2177 22.7051 47.999C22.36 47.3087 22.3472 46.5819 22.6667 45.8187C22.9881 45.0534 23.568 44.4983 24.4062 44.1531C25.0964 43.8573 25.8114 43.8701 26.551 44.1916C27.2905 44.5111 27.8575 45.0406 28.252 45.7802C29.0902 47.2594 30.1503 48.3816 31.4322 49.1468C32.7141 49.91 34.2919 50.2917 36.1655 50.2917C38.1871 50.2917 39.9009 49.8361 41.3071 48.9249C42.7113 48.0118 43.4135 46.5938 43.4135 44.6708C43.4135 42.9451 42.8711 41.5764 41.7864 40.5647C40.7016 39.5549 38.1871 38.409 34.2426 37.1271C30.0023 35.7958 27.0933 34.2062 25.5155 32.3582C23.9378 30.5083 23.1489 28.2521 23.1489 25.5896C23.1489 22.3847 24.1843 19.8948 26.2551 18.1198C28.326 16.3448 30.4461 15.334 32.6155 15.0875V11.8333C32.6155 10.9951 32.8985 10.292 33.4646 9.72404C34.0326 9.15801 34.7357 8.875 35.5739 8.875C36.4121 8.875 37.1152 9.15801 37.6832 9.72404C38.2492 10.292 38.5322 10.9951 38.5322 11.8333V15.0875C40.4058 15.3833 42.0329 15.9878 43.4135 16.901C44.794 17.8121 45.928 18.9333 46.8155 20.2646C47.2593 20.9056 47.3461 21.6205 47.0759 22.4094C46.8037 23.1983 46.2485 23.7653 45.4103 24.1104C44.72 24.4062 44.0051 24.4181 43.2655 24.1459C42.526 23.8757 41.8357 23.3955 41.1947 22.7052C40.5537 22.0149 39.8023 21.4844 38.9405 21.1136C38.0766 20.7448 37.0037 20.5604 35.7218 20.5604C33.5523 20.5604 31.9006 21.0416 30.7666 22.0041C29.6325 22.9646 29.0655 24.1597 29.0655 25.5896C29.0655 27.2167 29.8051 28.4986 31.2843 29.4354C32.7635 30.3722 35.3273 31.3583 38.976 32.3937C42.378 33.3799 44.9547 34.9448 46.7061 37.0886C48.4554 39.2344 49.3301 41.7125 49.3301 44.5229C49.3301 48.0236 48.2947 50.6861 46.2239 52.5104C44.153 54.3347 41.5891 55.4687 38.5322 55.9125V59.1667C38.5322 60.0049 38.2492 60.707 37.6832 61.273C37.1152 61.841 36.4121 62.125 35.5739 62.125Z" fill="#886CFF"/>
</svg>
