<svg width="31" height="31" viewBox="0 0 31 31" fill="none" xmlns="http://www.w3.org/2000/svg">
<path d="M18.4062 1.9375C17.6355 1.9375 16.8962 2.24369 16.3512 2.78872C15.8062 3.33375 15.5 4.07296 15.5 4.84375V8.71875C15.5001 9.31968 15.6864 9.9058 16.0334 10.3964C16.3804 10.8871 16.8709 11.2581 17.4375 11.4584V13.5625C17.4376 13.7466 17.4901 13.9268 17.5889 14.0821C17.6877 14.2374 17.8287 14.3614 17.9954 14.4395C18.1621 14.5175 18.3476 14.5465 18.5302 14.5229C18.7127 14.4994 18.8848 14.4243 19.0262 14.3065L22.2425 11.625H26.1562C26.927 11.625 27.6663 11.3188 28.2113 10.7738C28.7563 10.2288 29.0625 9.48954 29.0625 8.71875V4.84375C29.0625 4.07296 28.7563 3.33375 28.2113 2.78872C27.6663 2.24369 26.927 1.9375 26.1562 1.9375H18.4062ZM17.4375 4.84375C17.4375 4.58682 17.5396 4.34042 17.7212 4.15874C17.9029 3.97706 18.1493 3.875 18.4062 3.875H26.1562C26.4132 3.875 26.6596 3.97706 26.8413 4.15874C27.0229 4.34042 27.125 4.58682 27.125 4.84375V8.71875C27.125 8.97568 27.0229 9.22208 26.8413 9.40376C26.6596 9.58544 26.4132 9.6875 26.1562 9.6875H21.8938C21.6672 9.6876 21.4478 9.76713 21.2737 9.91225L19.375 11.4933V10.6562C19.375 10.3993 19.2729 10.1529 19.0913 9.97124C18.9096 9.78956 18.6632 9.6875 18.4062 9.6875C18.1493 9.6875 17.9029 9.58544 17.7212 9.40376C17.5396 9.22208 17.4375 8.97568 17.4375 8.71875V4.84375ZM5.8125 11.625C5.8125 10.5973 6.22076 9.61166 6.94746 8.88496C7.67416 8.15826 8.65979 7.75 9.6875 7.75C10.7152 7.75 11.7008 8.15826 12.4275 8.88496C13.1542 9.61166 13.5625 10.5973 13.5625 11.625C13.5625 12.6527 13.1542 13.6383 12.4275 14.365C11.7008 15.0917 10.7152 15.5 9.6875 15.5C8.65979 15.5 7.67416 15.0917 6.94746 14.365C6.22076 13.6383 5.8125 12.6527 5.8125 11.625ZM9.6875 9.6875C9.17364 9.6875 8.68083 9.89163 8.31748 10.255C7.95413 10.6183 7.75 11.1111 7.75 11.625C7.75 12.1389 7.95413 12.6317 8.31748 12.995C8.68083 13.3584 9.17364 13.5625 9.6875 13.5625C10.2014 13.5625 10.6942 13.3584 11.0575 12.995C11.4209 12.6317 11.625 12.1389 11.625 11.625C11.625 11.1111 11.4209 10.6183 11.0575 10.255C10.6942 9.89163 10.2014 9.6875 9.6875 9.6875ZM4.84375 17.4375H14.5312C15.302 17.4375 16.0413 17.7437 16.5863 18.2887C17.1313 18.8337 17.4375 19.573 17.4375 20.3438C17.4375 22.506 16.5482 24.2381 15.0893 25.4103C13.6536 26.5631 11.7277 27.125 9.6875 27.125C7.64731 27.125 5.72144 26.5631 4.28575 25.4103C2.82875 24.2381 1.9375 22.506 1.9375 20.3438C1.9375 19.573 2.24369 18.8337 2.78872 18.2887C3.33375 17.7437 4.07296 17.4375 4.84375 17.4375ZM14.5312 19.375H4.84375C4.58682 19.375 4.34042 19.4771 4.15874 19.6587C3.97706 19.8404 3.875 20.0868 3.875 20.3438C3.875 21.9267 4.50469 23.1008 5.49863 23.8991C6.51775 24.7167 7.9825 25.1875 9.6875 25.1875C11.3925 25.1875 12.8573 24.7167 13.8764 23.8991C14.8703 23.1008 15.5 21.9267 15.5 20.3438C15.5 20.0868 15.3979 19.8404 15.2163 19.6587C15.0346 19.4771 14.7882 19.375 14.5312 19.375Z" fill="#03A9F4"/>
</svg>
