<svg width="54" height="53" viewBox="0 0 54 53" fill="none" xmlns="http://www.w3.org/2000/svg">
<path d="M43.3812 28.2737L42.0065 26.9987L43.3812 28.2737ZM25.7036 10.596L26.9786 11.9708L25.7036 10.596ZM51.7746 6.93227L53.6338 7.17542L53.6338 7.17542L51.7746 6.93227ZM47.045 2.20262L47.2882 4.06179L47.045 2.20262ZM13.8583 27.878L15.5419 28.7033L13.8583 27.878ZM26.0993 40.119L25.2739 38.4354L26.0993 40.119ZM18.1906 21.6445C17.4584 20.9123 16.2712 20.9123 15.539 21.6445C14.8067 22.3767 14.8067 23.5639 15.539 24.2961L18.1906 21.6445ZM29.6811 38.4383C30.4133 39.1705 31.6005 39.1705 32.3328 38.4383C33.065 37.706 33.065 36.5189 32.3328 35.7866L29.6811 38.4383ZM13.7712 42.8577C14.5034 42.1255 14.5034 40.9383 13.7712 40.206C13.039 39.4738 11.8518 39.4738 11.1196 40.206L13.7712 42.8577ZM4.04849 47.2771C3.31626 48.0093 3.31626 49.1965 4.04849 49.9288C4.78073 50.661 5.96791 50.661 6.70014 49.9288L4.04849 47.2771ZM8.46791 37.5544C9.20014 36.8222 9.20014 35.635 8.46791 34.9027C7.73568 34.1705 6.54849 34.1705 5.81626 34.9027L8.46791 37.5544ZM2.28073 38.4383C1.54849 39.1705 1.54849 40.3577 2.28073 41.0899C3.01296 41.8222 4.20014 41.8222 4.93238 41.0899L2.28073 38.4383ZM19.0745 48.161C19.8067 47.4288 19.8067 46.2416 19.0745 45.5093C18.3423 44.7771 17.1551 44.7771 16.4229 45.5093L19.0745 48.161ZM12.8873 49.0449C12.1551 49.7771 12.1551 50.9643 12.8873 51.6965C13.6196 52.4288 14.8067 52.4288 15.539 51.6965L12.8873 49.0449ZM24.1127 48.9565L25.9688 48.6913L24.1127 48.9565ZM37.0173 40.2944L38.8735 40.0293L37.0173 40.2944ZM5.02071 29.8647L5.28588 28.0085L5.28588 28.0085L5.02071 29.8647ZM13.6828 16.96L13.9479 15.1038L13.9479 15.1038L13.6828 16.96ZM21.998 37.8264L16.1509 31.9793L13.4992 34.6309L19.3463 40.4781L21.998 37.8264ZM42.0065 26.9987C37.2724 32.103 29.5857 36.3216 25.2739 38.4354L26.9247 41.8025C31.2752 39.6697 39.5143 35.2003 44.756 29.5487L42.0065 26.9987ZM15.5419 28.7033C17.6557 24.3916 21.8742 16.7049 26.9786 11.9708L24.4285 9.2213C18.777 14.4629 14.3076 22.7021 12.1747 27.0526L15.5419 28.7033ZM49.9155 6.68911C49.1558 12.4975 47.1375 21.4664 42.0065 26.9987L44.756 29.5487C50.7447 23.0916 52.8625 13.0729 53.6338 7.17542L49.9155 6.68911ZM26.9786 11.9708C32.5109 6.83975 41.4798 4.82145 47.2882 4.06179L46.8018 0.343455C40.9043 1.11477 30.8856 3.23254 24.4285 9.2213L26.9786 11.9708ZM53.6338 7.17542C54.1615 3.14074 50.8365 -0.184231 46.8018 0.343455L47.2882 4.06179C48.8806 3.85352 50.1237 5.09671 49.9155 6.68911L53.6338 7.17542ZM16.1509 31.9793C15.2429 31.0713 15.0211 29.7657 15.5419 28.7033L12.1747 27.0526C10.9042 29.6441 11.5297 32.6614 13.4992 34.6309L16.1509 31.9793ZM19.3463 40.4781C21.3158 42.4475 24.3331 43.073 26.9247 41.8025L25.2739 38.4354C24.2116 38.9562 22.9059 38.7344 21.998 37.8264L19.3463 40.4781ZM15.539 24.2961L29.6811 38.4383L32.3328 35.7866L18.1906 21.6445L15.539 24.2961ZM11.1196 40.206L4.04849 47.2771L6.70014 49.9288L13.7712 42.8577L11.1196 40.206ZM5.81626 34.9027L2.28073 38.4383L4.93238 41.0899L8.46791 37.5544L5.81626 34.9027ZM16.4229 45.5093L12.8873 49.0449L15.539 51.6965L19.0745 48.161L16.4229 45.5093ZM30.565 13.6895C27.8801 16.3744 27.8801 20.7274 30.565 23.4123L33.2166 20.7606C31.9963 19.5402 31.9963 17.5616 33.2166 16.3412L30.565 13.6895ZM30.565 23.4123C33.2499 26.0971 37.6029 26.0971 40.2877 23.4123L37.6361 20.7606C36.4157 21.981 34.437 21.981 33.2166 20.7606L30.565 23.4123ZM40.2877 23.4123C42.9726 20.7274 42.9726 16.3744 40.2877 13.6895L37.6361 16.3412C38.8565 17.5616 38.8565 19.5402 37.6361 20.7606L40.2877 23.4123ZM40.2877 13.6895C37.6029 11.0047 33.2499 11.0047 30.565 13.6895L33.2166 16.3412C34.437 15.1208 36.4157 15.1208 37.6361 16.3412L40.2877 13.6895ZM34.9844 41.0899L27.0295 49.0449L29.6811 51.6965L37.6361 43.7416L34.9844 41.0899ZM25.9688 48.6913L24.9081 41.2667L21.1958 41.797L22.2565 49.2217L25.9688 48.6913ZM34.4541 35.6098L35.1612 40.5596L38.8735 40.0293L38.1664 35.0795L34.4541 35.6098ZM27.0295 49.0449C26.6653 49.4091 26.0416 49.2012 25.9688 48.6913L22.2565 49.2217C22.7663 52.7906 27.1319 54.2458 29.6811 51.6965L27.0295 49.0449ZM37.6361 43.7416C38.6098 42.7678 39.0683 41.3925 38.8735 40.0293L35.1612 40.5596C35.189 40.7543 35.1235 40.9508 34.9844 41.0899L37.6361 43.7416ZM10.2356 16.3412L2.28067 24.2962L4.93232 26.9478L12.8873 18.9929L10.2356 16.3412ZM4.75555 31.7208L12.1802 32.7815L12.7105 29.0692L5.28588 28.0085L4.75555 31.7208ZM18.8977 15.8109L13.9479 15.1038L13.4176 18.8161L18.3674 19.5232L18.8977 15.8109ZM2.28067 24.2962C-0.26859 26.8455 1.18659 31.211 4.75555 31.7208L5.28588 28.0085C4.77602 27.9357 4.56815 27.312 4.93232 26.9478L2.28067 24.2962ZM12.8873 18.9929C13.0264 18.8538 13.2229 18.7883 13.4176 18.8161L13.9479 15.1038C12.5847 14.9091 11.2094 15.3675 10.2356 16.3412L12.8873 18.9929Z" fill="#886CFF"/>
</svg>
