<svg width="57" height="57" viewBox="0 0 57 57" fill="none" xmlns="http://www.w3.org/2000/svg">
<path d="M35.1975 3.75C35.5945 3.75001 35.9812 3.87601 36.302 4.10986C36.6228 4.3437 36.8611 4.67333 36.9825 5.05125L39.045 11.46C39.9113 11.8837 40.74 12.36 41.5313 12.8962L48.1163 11.4788C48.5045 11.3959 48.9091 11.4383 49.2717 11.6001C49.6342 11.7618 49.9361 12.0345 50.1338 12.3788L55.3313 21.375C55.5298 21.7191 55.6138 22.1173 55.5714 22.5123C55.5289 22.9072 55.3621 23.2785 55.095 23.5725L50.5763 28.56C50.6421 29.5164 50.6421 30.4761 50.5763 31.4325L55.095 36.4275C55.3621 36.7215 55.5289 37.0928 55.5714 37.4877C55.6138 37.8827 55.5298 38.2809 55.3313 38.625L50.1338 47.625C49.9356 47.9686 49.6334 48.2405 49.2709 48.4015C48.9084 48.5626 48.5041 48.6045 48.1163 48.5213L41.5313 47.1037C40.7438 47.6362 39.9113 48.1162 39.0488 48.54L36.9825 54.9487C36.8611 55.3267 36.6228 55.6563 36.302 55.8901C35.9812 56.124 35.5945 56.25 35.1975 56.25H24.8025C24.4056 56.25 24.0189 56.124 23.6981 55.8901C23.3773 55.6563 23.139 55.3267 23.0175 54.9487L20.9588 48.5437C20.0949 48.1213 19.2616 47.6389 18.465 47.1L11.8838 48.5213C11.4955 48.6041 11.091 48.5617 10.7284 48.3999C10.3659 48.2382 10.064 47.9655 9.86629 47.6213L4.66879 38.625C4.47032 38.2809 4.38625 37.8827 4.42871 37.4877C4.47117 37.0928 4.63797 36.7215 4.90504 36.4275L9.42379 31.4325C9.35834 30.4786 9.35834 29.5214 9.42379 28.5675L4.90504 23.5725C4.63797 23.2785 4.47117 22.9072 4.42871 22.5123C4.38625 22.1173 4.47032 21.7191 4.66879 21.375L9.86629 12.375C10.0645 12.0314 10.3666 11.7595 10.7292 11.5985C11.0917 11.4374 11.4959 11.3955 11.8838 11.4788L18.465 12.9C19.26 12.3638 20.0925 11.88 20.9588 11.4563L23.0213 5.05125C23.1424 4.67454 23.3795 4.34579 23.6988 4.11206C24.0181 3.87833 24.4031 3.7516 24.7988 3.75H35.1938H35.1975ZM33.825 7.5H26.175L24.045 14.1263L22.6088 14.8275C21.9027 15.173 21.2211 15.5664 20.5688 16.005L19.2413 16.905L12.4313 15.435L8.60629 22.065L13.275 27.2325L13.1625 28.8225C13.1087 29.6066 13.1087 30.3934 13.1625 31.1775L13.275 32.7675L8.59879 37.935L12.4275 44.565L19.2375 43.0988L20.565 43.995C21.2174 44.4336 21.899 44.827 22.605 45.1725L24.0413 45.8737L26.175 52.5H33.8325L35.97 45.87L37.4025 45.1725C38.1078 44.8278 38.7882 44.4343 39.4388 43.995L40.7625 43.0988L47.5763 44.565L51.4013 37.935L46.7288 32.7675L46.8413 31.1775C46.8953 30.3922 46.8953 29.6041 46.8413 28.8188L46.7288 27.2288L51.405 22.065L47.5763 15.435L40.7625 16.8975L39.4388 16.005C38.7883 15.5656 38.1079 15.1721 37.4025 14.8275L35.97 14.13L33.8288 7.5H33.825ZM30 18.75C32.9837 18.75 35.8452 19.9353 37.955 22.045C40.0648 24.1548 41.25 27.0163 41.25 30C41.25 32.9837 40.0648 35.8452 37.955 37.955C35.8452 40.0647 32.9837 41.25 30 41.25C27.0164 41.25 24.1549 40.0647 22.0451 37.955C19.9353 35.8452 18.75 32.9837 18.75 30C18.75 27.0163 19.9353 24.1548 22.0451 22.045C24.1549 19.9353 27.0164 18.75 30 18.75ZM30 22.5C28.0109 22.5 26.1033 23.2902 24.6967 24.6967C23.2902 26.1032 22.5 28.0109 22.5 30C22.5 31.9891 23.2902 33.8968 24.6967 35.3033C26.1033 36.7098 28.0109 37.5 30 37.5C31.9892 37.5 33.8968 36.7098 35.3033 35.3033C36.7099 33.8968 37.5 31.9891 37.5 30C37.5 28.0109 36.7099 26.1032 35.3033 24.6967C33.8968 23.2902 31.9892 22.5 30 22.5Z" fill="#03A9F4"/>
</svg>
