<svg width="67" height="67" viewBox="0 0 67 67" fill="none" xmlns="http://www.w3.org/2000/svg">
<path d="M58.6251 13.9583C55.5263 12.9812 52.1205 12.5625 48.8542 12.5625C43.4105 12.5625 37.548 13.6792 33.5001 16.75C29.4522 13.6792 23.5897 12.5625 18.1459 12.5625C12.7022 12.5625 6.83966 13.6792 2.79175 16.75V57.6479C2.79175 58.3458 3.48966 59.0437 4.18758 59.0437C4.46675 59.0437 4.60633 58.9042 4.8855 58.9042C8.65425 57.0896 14.098 55.8333 18.1459 55.8333C23.5897 55.8333 29.4522 56.95 33.5001 60.0208C37.2688 57.6479 44.1084 55.8333 48.8542 55.8333C53.4605 55.8333 58.2063 56.6708 62.1147 58.7646C62.3938 58.9042 62.5334 58.9042 62.8126 58.9042C63.5105 58.9042 64.2084 58.2062 64.2084 57.5083V16.75C62.5334 15.4937 60.7188 14.6562 58.6251 13.9583ZM8.37508 51.6458V19.5417C11.4459 18.5646 14.7959 18.1458 18.1459 18.1458C21.8867 18.1458 26.8838 19.2904 30.7084 20.9096V53.0137C26.8838 51.3946 21.8867 50.25 18.1459 50.25C14.7959 50.25 11.4459 50.6687 8.37508 51.6458ZM58.6251 51.6458C55.5542 50.6687 52.2042 50.25 48.8542 50.25C45.1134 50.25 40.1163 51.3946 36.2917 53.0137V20.9096C40.1163 19.2625 45.1134 18.1458 48.8542 18.1458C52.2042 18.1458 55.5542 18.5646 58.6251 19.5417V51.6458Z" fill="#886CFF"/>
<path opacity="0.3" d="M30.7083 20.9096C26.8838 19.2905 21.8867 18.1459 18.1458 18.1459C14.7958 18.1459 11.4458 18.5646 8.375 19.5417V51.6459C11.4458 50.6688 14.7958 50.25 18.1458 50.25C21.8867 50.25 26.8838 51.3946 30.7083 53.0138V20.9096Z" fill="#886CFF"/>
<path d="M48.8541 29.3125C51.3108 29.3125 53.6837 29.5638 55.8333 30.0383V25.795C53.6278 25.3762 51.2549 25.125 48.8541 25.125C45.2808 25.125 41.9866 25.5717 39.0833 26.4371V30.82C41.847 29.8429 45.1691 29.3125 48.8541 29.3125ZM48.8541 36.7383C51.3108 36.7383 53.6837 36.9896 55.8333 37.4642V33.2208C53.6278 32.8021 51.2549 32.5508 48.8541 32.5508C45.2808 32.5508 41.9866 32.9975 39.0833 33.8629V38.2458C41.847 37.2967 45.1691 36.7383 48.8541 36.7383ZM48.8541 44.1921C51.3108 44.1921 53.6837 44.4433 55.8333 44.9179V40.6746C53.6278 40.2558 51.2549 40.0046 48.8541 40.0046C45.2808 40.0046 41.9866 40.4513 39.0833 41.3167V45.6996C41.847 44.7225 45.1691 44.1921 48.8541 44.1921Z" fill="#886CFF"/>
</svg>
