<svg width="31" height="30" viewBox="0 0 31 30" fill="none" xmlns="http://www.w3.org/2000/svg">
<path d="M15.5 6.25C14.301 6.25 13.1511 6.71094 12.3033 7.53141C11.4555 8.35188 10.9792 9.46468 10.9792 10.625C10.9792 11.7853 11.4555 12.8981 12.3033 13.7186C13.1511 14.5391 14.301 15 15.5 15C16.699 15 17.8489 14.5391 18.6967 13.7186C19.5445 12.8981 20.0208 11.7853 20.0208 10.625C20.0208 9.46468 19.5445 8.35188 18.6967 7.53141C17.8489 6.71094 16.699 6.25 15.5 6.25ZM15.5 8.75C16.0139 8.75 16.5067 8.94754 16.87 9.29917C17.2334 9.65081 17.4375 10.1277 17.4375 10.625C17.4375 11.1223 17.2334 11.5992 16.87 11.9508C16.5067 12.3025 16.0139 12.5 15.5 12.5C14.9861 12.5 14.4933 12.3025 14.13 11.9508C13.7666 11.5992 13.5625 11.1223 13.5625 10.625C13.5625 10.1277 13.7666 9.65081 14.13 9.29917C14.4933 8.94754 14.9861 8.75 15.5 8.75ZM7.10417 10C6.24774 10 5.42639 10.3292 4.8208 10.9153C4.21521 11.5013 3.875 12.2962 3.875 13.125C3.875 14.3 4.55958 15.3125 5.54125 15.85C6.00625 16.1 6.53583 16.25 7.10417 16.25C7.6725 16.25 8.20208 16.1 8.66708 15.85C9.145 15.5875 9.54542 15.2125 9.8425 14.7625C8.9015 13.5757 8.39283 12.1209 8.39583 10.625V10.275C8.00833 10.1 7.56917 10 7.10417 10ZM23.8958 10C23.4308 10 22.9917 10.1 22.6042 10.275V10.625C22.6042 12.125 22.1004 13.575 21.1575 14.7625C21.3125 15 21.4804 15.1875 21.6742 15.375C22.2698 15.9339 23.0662 16.2475 23.8958 16.25C24.4642 16.25 24.9937 16.1 25.4587 15.85C26.4404 15.3125 27.125 14.3 27.125 13.125C27.125 12.2962 26.7848 11.5013 26.1792 10.9153C25.5736 10.3292 24.7523 10 23.8958 10ZM15.5 17.5C12.4775 17.5 6.45833 18.9625 6.45833 21.875V23.75H24.5417V21.875C24.5417 18.9625 18.5225 17.5 15.5 17.5ZM6.08375 18.1875C3.59083 18.475 0 19.7 0 21.875V23.75H3.875V21.3375C3.875 20.075 4.76625 19.025 6.08375 18.1875ZM24.9163 18.1875C26.2338 19.025 27.125 20.075 27.125 21.3375V23.75H31V21.875C31 19.7 27.4092 18.475 24.9163 18.1875ZM15.5 20C17.4762 20 19.685 20.625 20.9637 21.25H10.0362C11.315 20.625 13.5237 20 15.5 20Z" fill="#03A9F4"/>
</svg>
